# xmcd
#
# Track frame offsets:
#	150
#	18780
#	32938
#	48335
#	72150
#	90687
#	110966
#	126901
#	145337
#	159342
#	181179
#
# Disc length: 2612 seconds
# Revision: 1
# Processed by: cddbd v1.5.2PL0 Copyright (c) Steve Scherf et al.
# Submitted via: dBpowerAMP V12.0
#
DISCID=940a320b
DTITLE=The Hornets - Everybody's Guilty
DYEAR=1999
DGENRE=Blues
TTITLE0=Love is an Opiate
TTITLE1=Everybody's Guilty
TTITLE2=All Your Love
TTITLE3=Dead Cafe
TTITLE4=Rainy Night in Georgia
TTITLE5=Melbourne
TTITLE6=Baby What's Wrong?
TTITLE7=Love in Vain
TTITLE8=Champagne and Reefer
TTITLE9=Sitting on Top of the World
TTITLE10=Albatross
EXTD=
EXTT0=
EXTT1=
EXTT2=
EXTT3=
EXTT4=
EXTT5=
EXTT6=
EXTT7=
EXTT8=
EXTT9=
EXTT10=
PLAYORDER=
